<?xml version="1.0" encoding="UTF-8" standalone="no"?>
<!-- Generator: Adobe Illustrator 24.0.3, SVG Export Plug-In . SVG Version: 6.00 Build 0)  -->

<svg
   version="1.1"
   id="Layer_1"
   x="0px"
   y="0px"
   viewBox="0 0 128 128"
   style="enable-background:new 0 0 128 128;"
   xml:space="preserve"
   sodipodi:docname="consertier.svg"
   inkscape:version="1.4.2 (2aeb623e1d, 2025-05-12)"
   xmlns:inkscape="http://www.inkscape.org/namespaces/inkscape"
   xmlns:sodipodi="http://sodipodi.sourceforge.net/DTD/sodipodi-0.dtd"
   xmlns:xlink="http://www.w3.org/1999/xlink"
   xmlns="http://www.w3.org/2000/svg"
   xmlns:svg="http://www.w3.org/2000/svg"><defs
   id="defs35">
	
	
	
	
</defs><sodipodi:namedview
   id="namedview35"
   pagecolor="#ffffff"
   bordercolor="#000000"
   borderopacity="0.25"
   inkscape:showpageshadow="2"
   inkscape:pageopacity="0.0"
   inkscape:pagecheckerboard="0"
   inkscape:deskcolor="#d1d1d1"
   showgrid="false"
   inkscape:zoom="2.8284271"
   inkscape:cx="43.487067"
   inkscape:cy="65.230601"
   inkscape:window-width="1410"
   inkscape:window-height="991"
   inkscape:window-x="26"
   inkscape:window-y="23"
   inkscape:window-maximized="0"
   inkscape:current-layer="Layer_1" />
<g
   id="hairGroup_1_"
   transform="matrix(1,0,0,0.71806715,0,1.373013)">
	<path
   id="hair_10_"
   style="fill:#ab872f"
   d="m 64.3,4.87 c -41.01,0 -40.68,35.92 -40.68,36.52 0,24.56 1.88,59.25 11.71,72.9 3.9,5.41 11.43,5.71 11.43,5.71 L 63.73,119.97 80.7,120 c 0,0 7.38,-0.41 11.43,-5.71 11.42,-14.94 11.71,-48.34 11.71,-72.9 -0.01,-0.6 1.47,-36.52 -39.54,-36.52 z" />
	
		<radialGradient
   id="hairHighlights_2_"
   cx="63.7313"
   cy="57.649601"
   r="46.963699"
   gradientTransform="matrix(1,0,0,1.1901,0,-9.1211)"
   gradientUnits="userSpaceOnUse">
		<stop
   offset="0.7936"
   style="stop-color:#BFA055;stop-opacity:0"
   id="stop1" />
		<stop
   offset="1"
   style="stop-color:#BFA055"
   id="stop2" />
	</radialGradient>
	<path
   id="hairHighlights_1_"
   style="fill:url(#hairHighlights_2_)"
   d="m 64.57,4.87 c -41.01,0 -40.95,37.21 -40.95,37.81 0,23.56 1.91,58.42 11.74,72.07 3.9,5.41 11.67,5.25 11.67,5.25 l 16.97,-0.02 16.97,0.03 c 0,0 7.47,-0.35 11.43,-5.71 11,-14.89 11.43,-48.35 11.43,-72.91 0,-0.6 1.75,-36.52 -39.26,-36.52 z" />
</g>
<g
   id="neck_1_">
	<polygon
   style="fill:#C48E6A;"
   points="73.63,112.3 73.63,89.51 64,89.51 54.37,89.51 54.37,112.3  "
   id="polygon2" />
</g>
<radialGradient
   id="suit_back_layer_2_"
   cx="64.6139"
   cy="121.182"
   r="52.4973"
   gradientTransform="matrix(1 0 0 0.5476 0 57.6522)"
   gradientUnits="userSpaceOnUse">
	<stop
   offset="0.7824"
   style="stop-color:#212121"
   id="stop3" />
	<stop
   offset="1"
   style="stop-color:#616161"
   id="stop4" />
</radialGradient>
<path
   id="suit_back_layer_1_"
   style="fill:#782121"
   d="M116.52,123.96v-3.11c0-9.38-8.44-15.34-15.73-18.43  c-6.45-2.74-14.28-5.1-23.99-5.8c0,0-2.92,19.52-12.65,19.38c-8.32-0.12-11.91-19.41-11.91-19.41  c-20.55,1.94-40.75,9.46-40.75,24.26v3.11H116.52z" />
<polygon
   style="fill:#e0e0e0"
   points="52.66,106 56.5,123.96 71.91,123.96 75.34,106 "
   id="polygon4" /><g
   id="g6"
   style="fill:#800000">
		<polygon
   style="fill:#800000"
   points="59.44,106.03 68.56,106.03 66.85,113.53 61.22,113.53 "
   id="polygon5" />
		<polygon
   style="fill:#800000"
   points="61.18,113.53 60.04,123.96 67.96,123.96 66.82,113.53 "
   id="polygon6" />
	</g><g
   id="g7">
		<path
   style="fill:#fafafa"
   d="m 63.98,106 -8.65,7.19 -1.62,1.35 -3.49,-17.81 c 0.5,-0.06 1,-0.11 1.5,-0.15 1.11,-0.11 1.37,-0.2 2.49,-0.27 0,0 1.81,3.08 3.66,5.5 3.17,4.13 6.11,4.19 6.11,4.19 z"
   id="path6" />
		<path
   style="fill:#fafafa"
   d="M 77.76,96.78 74.28,114.54 63.99,106 c 0,0 2.96,-0.06 6.13,-4.19 1.92,-2.5 3.67,-5.48 3.67,-5.48 1.12,0.08 1.38,0.17 2.49,0.28 0.5,0.05 0.99,0.1 1.48,0.17 z"
   id="path7" />
	</g><g
   id="g9"
   style="fill:#550000">
		<g
   id="g8"
   style="fill:#550000">
			<path
   style="fill:#550000"
   d="M 55.23,113.19 51.62,96.58 c -0.5,0.04 -1,0.09 -1.5,0.15 -3.16,0.34 -8.08,1.18 -8.08,1.18 l -3.1,6.57 7.12,4.36 -4.75,6.11 9.25,9.01 h 6 v 0 h 1.01 z"
   id="path8" />
		</g>
		<path
   style="fill:#550000"
   d="m 72.77,113.19 3.61,-16.61 c 0.5,0.04 1,0.09 1.5,0.15 3.35,0.22 8.01,1.03 8.01,1.03 l 3.17,6.72 -7.12,4.36 4.75,6.11 -9.25,9.01 h -6 v 0 h -1.01 z"
   id="path9" />
	</g>

<path
   id="head"
   style="fill:#e0bb95;stroke-width:0.925801"
   d="m 64.225429,16.04 c -14.742261,0 -28.395995,12.79 -28.395995,39.91 0,21.79 11.562389,34.67 21.62484,38.83 2.399903,0.99 4.714095,1.49 6.771155,1.49 2.039917,0 4.345538,-0.49 6.728299,-1.47 10.079593,-4.14 21.667696,-17.03 21.667696,-38.84 0,-27.13 -13.653734,-39.92 -28.395995,-39.92 z" /><path
   style="fill:#a37f69;stroke-width:0.116462"
   d="m 90.903068,117.40028 c 0,0 -0.602484,0.91153 -0.960384,1.74448 -0.357901,0.83295 -0.4959,1.32619 -0.518339,1.81218 -0.02244,0.47511 0.04151,0.54765 0.04151,0.54765 l 0.654096,-0.77009 c 0,0 0.0067,0.72777 0.05497,0.73503 0.04824,0.007 0.551997,-0.75075 0.585655,-0.758 0.03478,-0.007 0.03478,0.76525 0.08302,0.76525 0.04824,0 0.565461,-0.77976 0.600241,-0.77976 0.03478,0 0.04824,0.77251 0.08976,0.77251 0.04151,0 0.510485,-0.78701 0.545265,-0.77976 0.03478,0.007 0.158194,0.82449 0.199706,0.82449 0.04151,0 0.475705,-0.83174 0.523949,-0.83174 0.04824,0 0.103218,0.86196 0.158194,0.86196 0.05497,0 0.482436,-0.83174 0.517216,-0.83174 0.03478,0 0.17278,0.82449 0.227755,0.81723 0.05497,-0.007 0.434193,-0.81723 0.468973,-0.80272 0.03478,0.0145 0.124536,0.79547 0.186243,0.79547 0.06171,0 0.392681,-0.81723 0.447656,-0.81723 0.05497,0 0.194097,0.79305 0.235609,0.79305 0.04151,0 0.385949,-0.79547 0.427461,-0.80273 0.04151,-0.007 0.262535,0.87648 0.330974,0.87648 0.06844,0 0.275998,-0.81724 0.324242,-0.80999 0.04824,0.007 0.372485,0.77976 0.399412,0.77976 0.02693,0 0.269267,-0.80998 0.296194,-0.80998 0.02693,0 0.351168,0.73503 0.399412,0.74349 0.04824,0.007 0.227755,-0.73503 0.262535,-0.72052 0.03478,0.0145 0.365754,0.77976 0.407266,0.78701 0.04151,0.007 0.186243,-0.80272 0.227755,-0.80272 0.04151,0 0.4959,0.89098 0.53068,0.88372 0.03478,-0.007 0.07629,-0.89944 0.116683,-0.90669 0.04151,-0.007 0.585655,0.87647 0.627167,0.86922 0.04151,-0.007 0.02019,-0.89945 0.04824,-0.89945 0.02805,0 0.475705,0.83175 0.537412,0.82449 0.06171,-0.007 0.116684,-0.77976 0.158194,-0.77976 0.0415,0 0.53741,0.9067 0.60024,0.89945 0.0628,-0.007 0.0135,-0.84746 0.0415,-0.85472 0.0281,-0.007 0.58566,0.758 0.61371,0.75075 0.0281,-0.007 0.0202,-0.82449 0.0684,-0.83175 0.0482,-0.007 0.56546,0.79548 0.6137,0.77976 0.0482,-0.0145 0.055,-0.81723 0.083,-0.82449 0.028,-0.007 0.67429,0.82812 0.67429,0.82812 0,0 0.12566,-0.72657 -0.0965,-1.42291 -0.22215,-0.69634 -0.7618,-1.67436 -1.02322,-2.09023 -0.26029,-0.41587 -0.41287,-0.60809 -0.41287,-0.60809 l -6.373771,-0.8801 z"
   id="path5-2" />
<path
   id="nose"
   style="fill:#C48E6A;"
   d="M67.81,68.05c-0.1-0.04-0.21-0.07-0.32-0.08H60.5c-0.11,0.01-0.21,0.04-0.32,0.08  c-0.63,0.26-0.98,0.91-0.68,1.61s1.69,2.66,4.49,2.66c2.8,0,4.19-1.96,4.49-2.66C68.79,68.97,68.45,68.31,67.81,68.05z" />
<g
   id="eyes">
	<ellipse
   style="fill:#5d4037"
   cx="51.75"
   cy="62.869999"
   rx="4.8699999"
   ry="5.04"
   id="ellipse16" />
	<ellipse
   style="fill:#5d4037"
   cx="76.25"
   cy="62.869999"
   rx="4.8699999"
   ry="5.04"
   id="ellipse17" />
</g>
<path
   id="mouth"
   style="fill:#6D4C41;"
   d="M72.32,76.14c-3.15,1.87-13.46,1.87-16.61,0c-1.81-1.07-3.65,0.57-2.9,2.21  c0.74,1.61,6.37,5.36,11.23,5.36s10.42-3.75,11.16-5.36C75.95,76.71,74.12,75.06,72.32,76.14z" />
<g
   id="eyebrows">
	<path
   style="fill:#AB872F;"
   d="M54.98,49.82c-0.93-1.23-3.07-3.01-7.23-3.01s-6.31,1.79-7.23,3.01c-0.41,0.54-0.31,1.17-0.02,1.55   c0.26,0.35,1.04,0.68,1.9,0.39s2.54-1.16,5.35-1.18c2.81,0.02,4.49,0.89,5.35,1.18s1.64-0.03,1.9-0.39   C55.29,50.99,55.39,50.36,54.98,49.82z"
   id="path17" />
	<path
   style="fill:#AB872F;"
   d="M87.48,49.82c-0.93-1.23-3.07-3.01-7.23-3.01s-6.31,1.79-7.23,3.01c-0.41,0.54-0.31,1.17-0.02,1.55   c0.26,0.35,1.04,0.68,1.9,0.39s2.54-1.16,5.35-1.18c2.81,0.02,4.49,0.89,5.35,1.18s1.64-0.03,1.9-0.39   C87.79,50.99,87.89,50.36,87.48,49.82z"
   id="path18" />
</g>
<g
   id="hairGroup">
	<path
   id="hair_5_"
   style="fill:#AB872F;"
   d="M64.57,4.87c-41.01,0-40.68,35.92-40.68,36.52c0,7.76,0.19,16.53,0.75,25.32l6.72-0.02   c-0.06-2.92,1.99-20.97,8.08-22.34c22.36-5.03,35.01-16.89,35.01-16.89c3.29,7.18,13.58,14.19,17.27,16.86   c3.03,2.19,4.27,18.55,4.21,22.38h7.4c0-0.05,0.02-0.1,0.02-0.16c0.56-8.75,0.47-17.46,0.47-25.17   C103.83,40.79,105.58,4.87,64.57,4.87z" />
	
		<radialGradient
   id="hairHighlights_3_"
   cx="64.1982"
   cy="60.7722"
   r="49.6061"
   gradientTransform="matrix(1 0 0 1.2135 0 -11.1478)"
   gradientUnits="userSpaceOnUse">
		<stop
   offset="0.7945"
   style="stop-color:#BFA055;stop-opacity:0"
   id="stop18" />
		<stop
   offset="1"
   style="stop-color:#BFA055"
   id="stop19" />
	</radialGradient>
	<path
   id="hairHighlights"
   style="fill:url(#hairHighlights_3_);"
   d="M64.57,4.87c-41.01,0-40.68,35.92-40.68,36.52   c0,7.76,0.19,16.53,0.75,25.32l6.72-0.02c-0.06-2.92,1.99-20.97,8.08-22.34c22.36-5.03,35.01-16.89,35.01-16.89   c3.29,7.18,13.58,14.19,17.27,16.86c3.03,2.19,4.27,18.55,4.21,22.38h7.4c0-0.05,0.02-0.1,0.02-0.16   c0.56-8.75,0.47-17.46,0.47-25.17C103.83,40.79,105.58,4.87,64.57,4.87z" />
</g>
<g
   id="cap">
	<g
   id="g23">
		
			<linearGradient
   id="SVGID_1_"
   gradientUnits="userSpaceOnUse"
   x1="64.051"
   y1="25.8493"
   x2="64.051"
   y2="42.9818"
   gradientTransform="matrix(1 0 0 1 0 2)">
			<stop
   offset="4.000000e-03"
   style="stop-color:#666666"
   id="stop20" />
			<stop
   offset="0.0797"
   style="stop-color:#606060"
   id="stop21" />
			<stop
   offset="0.5459"
   style="stop-color:#3F3F3F"
   id="stop22" />
			<stop
   offset="0.8021"
   style="stop-color:#333333"
   id="stop23" />
		</linearGradient>
		<path
   style="fill:url(#SVGID_1_);"
   d="M63.79,24.17c-33.25,0-38.58,11.36-38.58,11.36s10.25,9.91,38.58,10.1    C92.13,45.44,102.9,34.9,102.9,34.9S97.05,24.17,63.79,24.17z"
   id="path23" />
	</g>
	<path
   style="fill:#303030;"
   d="M20.41,34.44c1.69,6.19,3.31,8.74,3.31,8.74c1.72-1.99,11.93-11.38,40.21-11.38h0.12h0.04   c28.28,0,38.03,9.43,39.74,11.43c0,0,2.04-2.76,3.74-8.95C111.5,19.96,92.04,3.92,64.04,3.92C36.12,3.93,16.5,20.14,20.41,34.44z"
   id="path24" />
	<g
   id="g28">
		<g
   id="g27">
			<g
   id="g26">
				<g
   id="g25">
					<defs
   id="defs24">
						<path
   id="SVGID_2_"
   d="M20.41,34.44c1.69,6.19,3.31,8.74,3.31,8.74c1.72-1.99,11.93-11.38,40.21-11.38h0.12h0.04        c28.28,0,38.03,9.43,39.74,11.43c0,0,2.04-2.76,3.74-8.95C111.5,19.96,92.04,3.92,64.04,3.92        C36.12,3.93,16.5,20.14,20.41,34.44z" />
					</defs>
					<clipPath
   id="SVGID_3_">
						<use
   xlink:href="#SVGID_2_"
   style="overflow:visible;"
   id="use24" />
					</clipPath>
					<path
   style="clip-path:url(#SVGID_3_);fill:#212121;"
   d="M98.21,35.24c-0.2-1.08-0.79-2.04-1.66-2.7       c-3.61-2.8-14.41-9.75-32.71-9.75c-18.77,0-29.28,6.94-32.76,9.74c-0.83,0.67-1.4,1.61-1.59,2.65l-0.01,0.06       c-0.6,3.17,2.27,5.92,5.41,5.17c6.55-1.58,17.23-3.6,28.95-3.62c11.72,0.02,22.4,2.05,28.95,3.62       C95.93,41.16,98.81,38.41,98.21,35.24z"
   clip-path="url(#SVGID_3_)"
   id="path25" />
				</g>
			</g>
		</g>
	</g>
	
</g>
<radialGradient
   id="SVGID_4_"
   cx="64.3139"
   cy="34.022"
   r="52.0145"
   gradientTransform="matrix(1 0 0 0.6655 0 13.8845)"
   gradientUnits="userSpaceOnUse">
	<stop
   offset="0.6313"
   style="stop-color:#212121;stop-opacity:0"
   id="stop34" />
	<stop
   offset="0.9176"
   style="stop-color:#BFBEBE"
   id="stop35" />
</radialGradient>
<path
   style="opacity:0.3;fill:#a02c2c;enable-background:new"
   d="m 20.41,34.44 c 1.69,6.19 3.31,8.74 3.31,8.74 1.72,-2 11.98,-11.62 40.27,-11.62 h 0.12 v 0 h 0.04 c 28.28,0 37.96,9.67 39.68,11.67 0,0 2.11,-2.99 3.81,-9.18 C 111.57,19.73 92.25,3.92 64.25,3.92 36.3,3.92 16.5,20.13 20.41,34.44 Z"
   id="path35"
   sodipodi:nodetypes="ccsccsccsc" />
<text
   xml:space="preserve"
   style="font-size:10.4321px;text-align:start;writing-mode:lr-tb;direction:ltr;text-anchor:start;fill:#ffffff;stroke-width:0.86934"
   x="59.844215"
   y="36.361958"
   id="text35"
   transform="matrix(1.1902757,0,-0.65085079,0.84014148,0,0)"><tspan
     sodipodi:role="line"
     id="tspan35"
     x="59.844215"
     y="36.361958"
     style="fill:#ffffff;stroke-width:0.86934">WB1</tspan></text></svg>
